<?xml version="1.0" standalone="no"?>
<!DOCTYPE svg PUBLIC "-//W3C//DTD SVG 20010904//EN"
 "http://www.w3.org/TR/2001/REC-SVG-20010904/DTD/svg10.dtd">
<svg version="1.0" xmlns="http://www.w3.org/2000/svg"
 width="225.000000pt" height="225.000000pt" viewBox="0 0 225.000000 225.000000"
 preserveAspectRatio="xMidYMid meet">
<metadata>
Created by potrace 1.11, written by Peter Selinger 2001-2013
</metadata>
<g transform="translate(0.000000,225.000000) scale(0.100000,-0.100000)"
fill="#000000" stroke="none">
<path d="M1260 1645 l-74 -75 -206 0 c-216 0 -230 -3 -230 -45 0 -39 35 -47
193 -43 81 2 147 0 147 -3 0 -4 -15 -18 -34 -33 -33 -25 -41 -26 -153 -26
-123 -1 -153 -9 -153 -45 0 -31 31 -44 108 -45 39 0 72 -2 72 -5 0 -3 -12 -17
-27 -30 -22 -19 -40 -24 -78 -25 -53 0 -75 -12 -75 -40 0 -34 33 -50 101 -50
l65 0 79 75 80 74 197 1 c188 0 198 1 217 21 18 20 19 23 4 45 -15 24 -18 24
-169 24 -85 0 -154 2 -154 5 0 3 12 17 28 30 25 23 35 24 147 25 122 0 130 2
153 32 11 14 10 20 -5 37 -15 18 -29 21 -97 21 l-80 0 29 30 c24 25 36 30 76
30 36 0 53 5 68 21 18 20 19 23 4 45 -14 22 -23 24 -87 24 l-72 0 -74 -75z"/>
<path d="M1961 988 c-62 -32 -93 -95 -99 -198 -6 -111 11 -172 63 -226 38 -41
45 -44 93 -44 62 0 105 31 133 98 11 24 19 45 19 47 0 8 -63 34 -71 29 -5 -3
-9 -13 -9 -23 0 -27 -46 -71 -74 -71 -36 0 -72 48 -80 110 -8 60 1 133 20 172
26 51 103 50 126 -2 11 -27 17 -30 43 -24 46 9 49 19 24 65 -47 83 -113 106
-188 67z"/>
<path d="M90 995 c0 -3 0 -106 0 -230 0 -124 0 -229 0 -235 0 -5 16 -10 35
-10 l35 0 0 76 c0 66 3 80 26 110 31 40 40 42 48 10 3 -13 24 -62 45 -110 l40
-86 41 0 c26 0 40 5 40 13 0 7 -29 72 -65 145 -36 74 -65 135 -65 137 0 3 29
43 65 90 36 46 65 87 65 90 0 3 -21 5 -47 5 l-48 0 -55 -81 c-96 -141 -89
-140 -90 -21 l0 102 -35 0 c-19 0 -35 -2 -35 -5z"/>
<path d="M444 987 c-2 -7 -3 -114 -2 -237 l3 -225 133 -3 132 -3 0 45 0 45
-96 3 -97 3 0 53 c0 29 3 55 6 58 3 4 43 7 88 8 l82 1 1 40 1 40 -80 2 c-44 1
-84 2 -90 2 -5 1 -10 22 -10 49 l1 47 97 3 97 3 0 39 0 40 -130 0 c-97 0 -132
-3 -136 -13z"/>
<path d="M780 996 c0 -3 0 -107 0 -231 0 -124 0 -229 0 -235 0 -5 13 -10 30
-10 l29 0 3 153 c2 124 5 147 14 127 31 -69 115 -247 123 -260 5 -9 22 -15 42
-15 l34 0 0 235 0 235 -32 3 -32 3 -3 -153 c-2 -124 -5 -148 -14 -128 -125
274 -125 275 -162 278 -18 2 -32 1 -32 -2z"/>
<path d="M1130 759 l0 -240 33 3 32 3 0 163 c0 89 2 162 5 162 3 0 18 -71 34
-157 15 -87 30 -161 32 -165 3 -5 18 -8 34 -8 35 0 38 9 70 200 12 69 24 128
28 132 4 4 7 -68 7 -160 l0 -167 33 -3 32 -3 0 240 0 241 -54 0 -54 0 -28
-150 c-16 -82 -31 -150 -34 -150 -3 0 -19 68 -34 150 l-29 150 -53 0 -54 0 0
-241z"/>
<path d="M1545 988 c-3 -8 -4 -115 -3 -238 l3 -225 133 -3 132 -3 0 46 0 46
-97 -2 -98 -2 0 63 0 63 88 -2 87 -2 0 46 0 46 -87 -2 -88 -2 0 49 0 49 94 5
95 5 0 35 0 35 -127 3 c-98 2 -129 0 -132 -10z"/>
</g>
</svg>
