<svg xmlns="http://www.w3.org/2000/svg" width="100.431" height="30.213" viewBox="0 0 100.431 30.213">
  <g id="Group_98" data-name="Group 98" transform="translate(-35.645 -361.754)">
    <path id="Path_3" data-name="Path 3" d="M354.516,414.5c1.174-1.566,2.349-3.037,3.407-4.589a1.754,1.754,0,0,1,1.789-.875c.773.063,1.555.014,2.563.014-.86,1.183-1.6,2.212-2.354,3.236-.838,1.143-1.641,2.316-2.541,3.409a1.287,1.287,0,0,0-.024,1.922c1.6,2.03,3.1,4.135,4.632,6.212.162.22.311.449.575.833-1.4,0-2.647.037-3.887-.03-.262-.014-.552-.373-.747-.634-1.226-1.636-2.428-3.288-3.73-5.059-1.172,1.646-2.326,3.171-3.366,4.769a1.866,1.866,0,0,1-1.922.982c-.932-.076-1.875-.017-2.984-.017.214-.345.338-.576.491-.786,1.592-2.193,3.2-4.376,4.769-6.583a1.017,1.017,0,0,0,.151-.879c-1.507-2.167-3.063-4.3-4.71-6.588-.7,2.026-1.339,3.893-1.985,5.758a38.723,38.723,0,0,1-4.266,9.135,12.349,12.349,0,0,1-7.315,5.328c-.39.1-.793.152-1.245.237l-.94-2.79a14.07,14.07,0,0,0,2.01-.815,14.258,14.258,0,0,0,2.824-1.983,2.126,2.126,0,0,0,.412-1.864c-1.622-4.131-3.362-8.216-5.145-12.505l-10.087,11.413h9.462v2.867H315.078a2.83,2.83,0,0,1,.609-2.668c2.809-3.067,5.539-6.205,8.3-9.319.156-.176.283-.377.526-.7H315.92v-2.877h.943c5.612,0,11.223.017,16.835-.018a1.2,1.2,0,0,1,1.365.915c1.149,3.068,2.37,6.108,3.568,9.157.054.138.135.265.293.569.5-1.32.948-2.479,1.384-3.641.773-2.065,1.569-4.122,2.291-6.2a1.013,1.013,0,0,1,1.169-.788c1.954.036,3.91-.023,5.862.041a1.839,1.839,0,0,1,1.224.617c1.1,1.377,2.114,2.823,3.165,4.241C354.144,414.1,354.3,414.25,354.516,414.5Z" transform="translate(-226.488 -38.325)" fill="#222d76" fill-rule="evenodd"/>
    <path id="Path_4" data-name="Path 4" d="M35.726,361.754h4.9c0,.352,0,.681,0,1.01,0,4.161-.014,8.322.015,12.483a12.4,12.4,0,0,0,.284,2.623c.765,3.389,3.328,5.227,7.043,5.121,3.576-.1,5.948-2.064,6.559-5.48a14.3,14.3,0,0,0,.2-2.445c.019-4.066.007-8.133.006-12.2v-1.085h5.011c.02.233.059.474.059.715q0,6.289,0,12.577a11.842,11.842,0,0,1-1.287,5.659,9.686,9.686,0,0,1-6.637,4.885,18.361,18.361,0,0,1-8.618.049c-4.215-.98-7.228-3.993-7.47-8.32C35.505,372.2,35.726,367.03,35.726,361.754Z" transform="translate(0 0)" fill="#222d76" fill-rule="evenodd"/>
    <path id="Path_5" data-name="Path 5" d="M195.289,422.384h-4.195c-.019-.36-.051-.69-.052-1.02-.007-2.584,0-5.168-.014-7.752a9.188,9.188,0,0,0-.1-1.317c-.355-2.377-1.881-3.689-4.1-3.546a4.123,4.123,0,0,0-3.843,4.066c-.051,2.8-.018,5.609-.021,8.413,0,.344,0,.689,0,1.112h-4.224V406.65c1.059,0,2.06-.03,3.056.028.181.011.46.368.486.59a15.676,15.676,0,0,1,.023,1.816,20.335,20.335,0,0,1,2.48-1.7,8.037,8.037,0,0,1,7.866.382,5.247,5.247,0,0,1,2.7,4.612c.087,3.212.031,6.427.032,9.641A1.923,1.923,0,0,1,195.289,422.384Z" transform="translate(-116.02 -36.302)" fill="#222d76" fill-rule="evenodd"/>
    <path id="Path_6" data-name="Path 6" d="M282.452,409.282h4.269v15.543h-4.269Z" transform="translate(-200.105 -38.534)" fill="#222d76" fill-rule="evenodd"/>
    <path id="Path_7" data-name="Path 7" d="M281.742,369.741a2.666,2.666,0,1,1,.064-5.324,2.669,2.669,0,0,1,2.8,2.69A2.7,2.7,0,0,1,281.742,369.741Z" transform="translate(-197.278 -2.159)" fill="#222d76" fill-rule="evenodd"/>
  </g>
</svg>
