<svg xmlns="http://www.w3.org/2000/svg" width="148.748" height="44.748" viewBox="0 0 148.748 44.748">
  <g id="logo_w" transform="translate(-476 -2072)">
    <path id="Path_65" data-name="Path 65" d="M373.53,417.13c1.738-2.319,3.479-4.5,5.047-6.8a2.6,2.6,0,0,1,2.65-1.3c1.145.094,2.3.02,3.8.02-1.274,1.752-2.374,3.276-3.486,4.792-1.242,1.693-2.431,3.431-3.764,5.049a1.906,1.906,0,0,0-.035,2.846c2.363,3.007,4.585,6.125,6.861,9.2.24.325.461.666.852,1.233-2.077,0-3.921.055-5.757-.044-.388-.021-.817-.553-1.107-.939-1.815-2.422-3.6-4.87-5.524-7.493-1.736,2.438-3.446,4.7-4.986,7.064a2.763,2.763,0,0,1-2.847,1.455c-1.381-.113-2.777-.025-4.42-.025.317-.511.5-.853.727-1.164,2.358-3.248,4.737-6.481,7.064-9.751a1.507,1.507,0,0,0,.223-1.3c-2.232-3.21-4.536-6.37-6.976-9.757-1.034,3-1.983,5.766-2.941,8.528a57.348,57.348,0,0,1-6.318,13.53,18.29,18.29,0,0,1-10.834,7.891c-.578.148-1.174.226-1.844.351l-1.392-4.133a20.838,20.838,0,0,0,2.977-1.207,21.117,21.117,0,0,0,4.182-2.937,3.149,3.149,0,0,0,.611-2.761c-2.4-6.119-4.979-12.169-7.62-18.521l-14.94,16.9h14.014v4.246H315.119a4.191,4.191,0,0,1,.9-3.952c4.16-4.542,8.2-9.191,12.286-13.8.231-.261.42-.559.779-1.042h-12.72v-4.261h1.4c8.311,0,16.623.025,24.934-.026a1.779,1.779,0,0,1,2.022,1.355c1.7,4.544,3.511,9.046,5.284,13.563.08.2.2.393.434.843.744-1.955,1.4-3.672,2.049-5.393,1.145-3.058,2.324-6.1,3.394-9.19a1.5,1.5,0,0,1,1.731-1.168c2.894.053,5.791-.034,8.682.061a2.724,2.724,0,0,1,1.813.914c1.629,2.04,3.132,4.181,4.687,6.281C372.98,416.546,373.206,416.765,373.53,417.13Z" transform="translate(239.298 1676.225)" fill="#fff" fill-rule="evenodd"/>
    <path id="Path_67" data-name="Path 67" d="M35.764,361.754h7.258c0,.521,0,1.008,0,1.5,0,6.163-.021,12.326.022,18.489a18.37,18.37,0,0,0,.42,3.885c1.133,5.02,4.929,7.742,10.431,7.584,5.3-.152,8.809-3.058,9.715-8.116a21.179,21.179,0,0,0,.3-3.621c.028-6.023.011-12.045.01-18.068v-1.607h7.422c.03.345.088.7.088,1.059q.007,9.314,0,18.628a17.539,17.539,0,0,1-1.906,8.381,14.346,14.346,0,0,1-9.83,7.235,27.193,27.193,0,0,1-12.763.073c-6.243-1.452-10.7-5.914-11.064-12.322C35.438,377.23,35.764,369.568,35.764,361.754Z" transform="translate(440.355 1710.246)" fill="#fff" fill-rule="evenodd"/>
    <path id="Path_68" data-name="Path 68" d="M203.249,430.012h-6.213c-.029-.533-.076-1.022-.077-1.511-.01-3.827,0-7.654-.021-11.481a13.61,13.61,0,0,0-.142-1.951c-.526-3.521-2.786-5.464-6.073-5.252a6.106,6.106,0,0,0-5.692,6.022c-.076,4.152-.027,8.307-.031,12.461,0,.51,0,1.02,0,1.646h-6.257V406.708c1.568,0,3.051-.045,4.527.041.268.016.681.545.721.874a23.213,23.213,0,0,1,.034,2.689,30.12,30.12,0,0,1,3.673-2.523,11.9,11.9,0,0,1,11.65.566,7.772,7.772,0,0,1,4,6.831c.128,4.757.046,9.519.047,14.279A2.847,2.847,0,0,1,203.249,430.012Z" transform="translate(337.361 1678.02)" fill="#fff" fill-rule="evenodd"/>
    <path id="Path_66" data-name="Path 66" d="M282.452,409.282h6.323V432.3h-6.323Z" transform="translate(262.719 1676.038)" fill="#fff" fill-rule="evenodd"/>
    <path id="Path_69" data-name="Path 69" d="M283.078,372.3a3.948,3.948,0,1,1,.094-7.885,3.954,3.954,0,0,1,4.146,3.984A4,4,0,0,1,283.078,372.3Z" transform="translate(265.228 1708.33)" fill="#fff" fill-rule="evenodd"/>
  </g>
</svg>
