<svg xmlns="http://www.w3.org/2000/svg" width="112.604" height="63.518" viewBox="0 0 112.604 63.518">
  <g id="shareholder" transform="translate(-920 -1513.177)">
    <path id="Path_15" data-name="Path 15" d="M656.114,88.084a18.2,18.2,0,1,0-18.194,18.2A18.2,18.2,0,0,0,656.114,88.084Z" transform="translate(338.385 1443.289)" fill="#4d4e50"/>
    <path id="Path_10" data-name="Path 10" d="M669.99,92.991a13.354,13.354,0,1,0-13.352,13.35A13.353,13.353,0,0,0,669.99,92.991Z" transform="translate(355.686 1450.447)" fill="#4d4e50"/>
    <path id="Path_11" data-name="Path 11" d="M651.187,111.69l1.549-10.168h.055l-1.523-2.789h6.08l-1.523,2.789h.057l1.545,10.168h1.854l2.881-15.119c-.281-.023-.562-.043-.85-.043h-14c-.288,0-.572.021-.853.043l2.879,15.119Z" transform="translate(358.015 1462.849)" fill="#fff"/>
    <path id="Path_12" data-name="Path 12" d="M628.451,92.991a13.354,13.354,0,1,0-13.355,13.35A13.354,13.354,0,0,0,628.451,92.991Z" transform="translate(325.185 1450.447)" fill="#4d4e50"/>
    <path id="Path_13" data-name="Path 13" d="M597.748,111.177v6.094h26.64a19.076,19.076,0,0,1,2.022-8.13v8.13h55.279v-8.225a19.031,19.031,0,0,1,2.072,8.225h26.591v-6.094A12.551,12.551,0,0,0,697.8,98.625H682.342a12.425,12.425,0,0,0-3.709.595,17.094,17.094,0,0,0-14.047-7.357H643.516a17.089,17.089,0,0,0-14.047,7.357,12.429,12.429,0,0,0-3.713-.595H610.293A12.553,12.553,0,0,0,597.748,111.177Zm85.325-11.224h14c.288,0,.569.021.85.043l-2.881,15.119h-1.854l-1.545-10.168h-.057l1.523-2.789h-6.08l1.523,2.789H688.5l-1.549,10.168H685.1L682.219,100C682.5,99.974,682.785,99.953,683.073,99.953ZM644.508,93.67h19.085c.389,0,.775.031,1.157.057l-3.923,20.6H647.271l-3.923-20.6C643.733,93.7,644.118,93.67,644.508,93.67Zm-33.479,6.283h14c.288,0,.569.021.853.043L623,115.116h-1.854L619.6,104.948h-.057l1.519-2.789H614.99l1.517,2.789h-.052l-1.547,10.168h-1.854L610.176,100C610.456,99.974,610.737,99.953,611.029,99.953Z" transform="translate(322.252 1459.424)" fill="#4d4e50"/>
    <path id="Path_14" data-name="Path 14" d="M609.647,111.69l1.547-10.168h.052l-1.517-2.789H615.8l-1.519,2.789h.057l1.545,10.168h1.854l2.881-15.119c-.284-.023-.565-.043-.853-.043h-14c-.291,0-.572.021-.853.043l2.879,15.119Z" transform="translate(327.513 1462.849)" fill="#fff"/>
    <path id="Path_16" data-name="Path 16" d="M630.493,113.567,632.6,99.715h.076l-2.069-3.8h8.281l-2.074,3.8h.078l2.1,13.851h2.527l3.923-20.6c-.381-.026-.768-.057-1.157-.057H625.2c-.39,0-.775.031-1.16.057l3.923,20.6Z" transform="translate(341.558 1460.189)" fill="#fff"/>
    <path id="Path_17" data-name="Path 17" d="M634.156,98.443h-.074l2.073-3.805h-8.28l2.069,3.805h-.077l-2.1,13.852h8.5l-2.1-13.852Z" transform="translate(344.29 1461.461)" fill="#157fdc"/>
  </g>
</svg>
