<svg xmlns="http://www.w3.org/2000/svg" width="73.978" height="74.376" viewBox="0 0 73.978 74.376">
  <g id="stock" transform="translate(-550 -1508.97)">
    <path id="Path_8" data-name="Path 8" d="M785.155,731.054V727H716.394V656.678H712.35v72.349a2.022,2.022,0,0,0,2.022,2.027Z" transform="translate(-162.35 852.292)" fill="#4d4e50"/>
    <path id="Path_9" data-name="Path 9" d="M780.11,660.689H768.475a3.044,3.044,0,1,0,0,6.089h4.02l-21.484,25.368-.111-7.627a3.045,3.045,0,0,0-5.368-1.925L717.392,715.82a3.045,3.045,0,0,0,4.648,3.935l22.885-27.023.113,7.627a3.045,3.045,0,0,0,5.367,1.923L777.067,670.8v5.48a3.044,3.044,0,1,0,6.089,0V663.733a3.046,3.046,0,0,0-3.045-3.044Z" transform="translate(-159.178 855.237)" fill="#157fdc"/>
  </g>
</svg>
