<svg xmlns="http://www.w3.org/2000/svg" width="101.164" height="86.29" viewBox="0 0 101.164 86.29">
  <g id="tool" transform="translate(-1317 -1512.497)">
    <path id="Path_18" data-name="Path 18" d="M952.919,654.63a40.793,40.793,0,1,0,36.606,21.595l-1.927,1.164a38.541,38.541,0,1,1-1.963-3.3l1.922-1.16A40.738,40.738,0,0,0,952.919,654.63Z" transform="translate(406.574 860.269)" fill="none"/>
    <path id="Path_19" data-name="Path 19" d="M995.331,695.737a40.809,40.809,0,1,1-6.76-21.792l2.052-1.24a43.057,43.057,0,1,0,1.968,3.3l-2.052,1.238A40.575,40.575,0,0,1,995.331,695.737Z" transform="translate(405.56 859.254)" fill="#4d4e50"/>
    <path id="Path_20" data-name="Path 20" d="M952,655.933a38.5,38.5,0,1,0,34.643,20.5l-8.278,5a28.618,28.618,0,1,1-1.935-3.316l8.25-4.981A38.454,38.454,0,0,0,952,655.933Z" transform="translate(407.531 861.226)" fill="#4d4e50"/>
    <path id="Path_21" data-name="Path 21" d="M948.077,661.48a28.944,28.944,0,1,0,26.213,15.877l-8.253,4.986a19.305,19.305,0,1,1-1.942-3.312l8.26-4.989A28.822,28.822,0,0,0,948.077,661.48Z" transform="translate(411.604 865.299)" fill="#fff"/>
    <path id="Path_22" data-name="Path 22" d="M944.157,667.026a19.272,19.272,0,1,0,17.805,11.243l-8.338,5.038a9.743,9.743,0,0,1,.463,2.808,9.631,9.631,0,1,1-2.359-6.153l8.292-5.005A19.215,19.215,0,0,0,944.157,667.026Z" transform="translate(415.679 869.373)" fill="#4d4e50"/>
    <path id="Path_23" data-name="Path 23" d="M940.239,672.573a9.624,9.624,0,1,0,9.776,9.467,9.743,9.743,0,0,0-.463-2.808l-6.134,3.7a1.7,1.7,0,0,1-2.291-.524l-.09-.139a1.976,1.976,0,0,1,.633-2.768l5.987-3.618A9.607,9.607,0,0,0,940.239,672.573Z" transform="translate(419.752 873.447)" fill="#fff"/>
    <path id="Path_24" data-name="Path 24" d="M991.423,670.256a1.236,1.236,0,0,0,1.214-.033l1.27-.766a.626.626,0,0,0-.033-1.082l-5.865-3.089.659-.4a.641.641,0,0,0,.283-.387.626.626,0,0,0-.078-.474l-.826-1.323a.621.621,0,0,0-.85-.2l-.68.409-.144-6.561a.616.616,0,0,0-.321-.529.623.623,0,0,0-.617.01l-1.262.761a1.243,1.243,0,0,0-.595,1.084l.153,6.92-.335.2-.146-6.562a.623.623,0,0,0-.943-.519l-1.259.76a1.241,1.241,0,0,0-.6,1.086l.156,6.92-.34.206-.146-6.562a.622.622,0,0,0-.943-.519l-1.257.76a1.229,1.229,0,0,0-.593,1.08l.128,5.895a.615.615,0,0,1-.293.538l-4.941,2.985-2.052,1.24-1.922,1.16L960,678.249l-8.26,4.989-8.292,5.005-5.987,3.618a1.976,1.976,0,0,0-.633,2.768l.09.139a1.7,1.7,0,0,0,2.291.524l6.134-3.7,8.338-5.038,8.253-4.986,8.278-5,1.927-1.164,2.052-1.238,4.939-2.983a.608.608,0,0,1,.6-.019l5.446,2.872a1.229,1.229,0,0,0,1.212-.036l1.268-.767a.619.619,0,0,0-.031-1.077l-5.867-3.09.324-.194,6.221,3.274a1.229,1.229,0,0,0,1.212-.033l1.268-.768a.627.627,0,0,0,.3-.548.621.621,0,0,0-.333-.532l-5.867-3.087.323-.2Z" transform="translate(423.963 861.091)" fill="#157fdc"/>
  </g>
</svg>
