<?xml version="1.0" encoding="utf-8"?>
<!-- Generator: Adobe Illustrator 16.0.0, SVG Export Plug-In . SVG Version: 6.00 Build 0)  -->
<!DOCTYPE svg PUBLIC "-//W3C//DTD SVG 1.1//EN" "http://www.w3.org/Graphics/SVG/1.1/DTD/svg11.dtd">
<svg version="1.1" id="圖層_1" xmlns="http://www.w3.org/2000/svg" xmlns:xlink="http://www.w3.org/1999/xlink" x="0px" y="0px"
	 width="19.104px" height="19.104px" viewBox="-2.229 -2.229 19.104 19.104" enable-background="new -2.229 -2.229 19.104 19.104"
	 xml:space="preserve">
<g>
	<path fill="#FFFFFF" d="M7.486-1.954c-5.196,0-9.409,4.213-9.409,9.41c0,5.195,4.213,9.409,9.409,9.409
		c5.195,0,9.41-4.214,9.41-9.409C16.896,2.259,12.681-1.954,7.486-1.954z M13.715,4.707c0.105-0.006,0.151-0.099,0.24-0.126
		c0.17-0.051,0.11,0.054,0.195,0.139c0.069,0-0.092,0.049-0.102,0.049c-0.072,0.027-0.064,0.013-0.123,0.013
		c-0.022,0.028,0.037,0.16,0.049,0.16c0.052,0.077,0.078,0.027,0.074,0.14c-0.005,0.102,0.078,0.009,0.112,0.009
		c0,0.062,0.091,0.112,0.098,0.185c-0.041,0.006-0.132-0.012-0.146,0c0.004,0.072,0.049,0.072,0.049,0.136
		c0.078,0-0.059,0.196,0.076,0.196c-0.032,0.125-0.245,0.084-0.274-0.035c-0.209-0.046-0.097-0.194-0.103-0.309
		c-0.01-0.152-0.146-0.205-0.146-0.321C13.608,4.942,13.715,4.728,13.715,4.707z M13.645,11.863
		c0.011-0.131-0.014-0.354,0.048-0.354c0-0.1,0.056-0.234,0.06-0.357c0.024,0,0.042,0,0.063,0c0-0.025-0.007-0.113,0.037-0.136
		c0-0.065,0.172-0.097,0.073-0.186c-0.039-0.014-0.073-0.195-0.073-0.259c-0.054,0.055,0.026,0.211-0.101,0.211
		c0-0.149-0.166,0.087-0.022,0.087c0,0.135-0.173,0.072-0.235,0.035c-0.03,0.074-0.052,0.107,0.036,0.123
		c-0.034,0.107-0.074,0.038-0.123,0c-0.05,0.149-0.164,1.009,0.164,0.938c-1.38,1.863-3.593,3.07-6.085,3.07
		c-4.18,0-7.578-3.401-7.578-7.581c0-1.158,0.26-2.253,0.725-3.235c0.001,0.002,0.004,0.003,0.004,0.005
		C0.854,4.4,0.857,4.694,0.857,4.929c-0.029,0.134,0.037,0.292,0.037,0.42C0.956,5.38,1.067,5.572,1.067,5.633
		c0.002,0,0.14,0.195,0.148,0.21c0.165,0,0.248,0.072,0.248,0.222c-0.009,0,0.099,0.23,0.135,0.259c0,0.065,0.099,0.303,0.16,0.333
		c0,0.201,0.487,0.522,0.208,0.051C1.941,6.665,1.813,6.424,1.783,6.424c0-0.08-0.163-0.171-0.143-0.239
		C1.671,6.08,1.858,6.32,1.858,6.374c0.026,0,0.098,0.159,0.098,0.173c0.045,0,0.222,0.132,0.222,0.21
		c0.128,0,0.201,0.321,0.208,0.411c0.003,0.076,0.044,0.28,0.151,0.28c0.047,0.094,0.252,0.061,0.296,0.148
		c0.133,0,0.277,0.099,0.42,0.099c0.125,0,0.149,0.147,0.26,0.147c0.016,0.035,0.074,0.024,0.074,0.051
		c0.107,0,0.406,0.168,0.357,0.297c0.052,0.024,0.2,0.173,0.186,0.247c0.02,0.147,0.253,0.14,0.345,0.185
		c0.086-0.26,0.197-0.015,0.197,0.111c-0.009,0.04,0,0.213,0,0.297c0.114,0-0.03,0.183-0.061,0.062
		C4.568,9.109,4.544,9.144,4.538,9.189c-0.062,0-0.2,0.374-0.063,0.421C4.459,9.754,4.291,9.879,4.451,9.967
		c0-0.008,0.301,0.434,0.259,0.434c0,0.07,0.045,0.153,0.062,0.209c0,0.128,0.126,0.419,0.31,0.419
		c-0.002-0.004,0.187,0.199,0.16,0.199c0.056,0.332-0.024,0.541-0.024,0.902c-0.107,0-0.006,0.718-0.148,0.789
		c-0.027,0.114-0.111,0.21-0.074,0.284c0.012,0.117,0,0.236,0,0.333c-0.03,0-0.062,0.16-0.062,0.197
		c-0.082,0-0.086,0.613-0.077,0.829c0.195,0.073,0.397,0.139,0.6,0.195c-0.024-0.036-0.042-0.076-0.042-0.122
		c-0.082,0-0.002-0.224,0.087-0.224c0.029-0.106,0.084-0.109,0.135-0.186c0.061,0-0.037-0.098-0.037-0.037
		c-0.014,0-0.014,0.039-0.049,0.051c-0.012-0.029,0.002-0.062-0.013-0.062c0-0.071,0.038-0.137,0.038-0.209
		c0.022,0,0.054-0.09,0.087-0.111c0.067-0.081,0.135-0.091,0.135-0.199c0.015,0-0.021-0.123-0.05-0.123
		c0.073-0.063,0.162,0.051,0.162-0.076c0.022,0,0.036-0.074,0.036-0.097c0.106-0.069,0.085-0.087,0.247-0.087
		c0.021-0.04,0.138-0.087,0.186-0.085c0-0.02,0.015-0.185,0-0.185c0-0.093,0.16-0.103,0.16-0.138
		c0.089-0.062,0.115-0.135,0.12-0.238c0.003-0.08,0.125-0.181,0.196-0.181c0.108,0,0.036-0.05,0.104-0.05
		c-0.02-0.059,0.027-0.057,0.059-0.093c0.047-0.059,0.03-0.265,0.04-0.353c-0.023,0,0.102-0.118,0.112-0.135
		c0.058,0,0.102-0.051,0.161-0.051c0.03-0.061,0.233-0.153,0.308-0.21c0.033-0.131,0.123-0.155,0.123-0.296
		c0.037,0,0.074-0.271,0.074-0.321c0.008,0,0.014-0.247,0.014-0.272c0.006,0,0.185-0.197,0.185-0.222
		c0.164-0.123,0.139-0.486-0.019-0.627C7.92,9.738,7.862,9.694,7.723,9.646C7.702,9.712,7.645,9.67,7.586,9.667
		C7.485,9.665,7.475,9.735,7.377,9.735c0.011-0.062,0.042-0.236-0.074-0.25c0,0.119-0.119,0.061-0.087-0.013
		c-0.056,0-0.106-0.085-0.185-0.098c0,0.126-0.19,0.024-0.137,0.024c0-0.017-0.031-0.187,0.014-0.187
		C6.894,9.144,6.875,9.017,6.821,8.98C6.774,8.876,6.85,8.914,6.735,8.82C6.715,8.78,6.706,8.811,6.687,8.77
		c-0.039,0-0.113-0.102-0.136-0.013C6.479,8.752,6.416,8.716,6.348,8.698C6.227,8.66,6.333,8.649,6.253,8.608
		c0-0.035-0.111-0.045-0.111-0.097C6.121,8.451,6.075,8.446,6.069,8.423c-0.012,0.005-0.02-0.001-0.025-0.01
		c-0.024,0-0.019-0.048-0.074-0.048C5.963,8.346,5.911,8.304,5.896,8.314c-0.057,0.041-0.212,0.02-0.28,0.015
		C5.449,8.316,5.479,8.125,5.39,8.115C5.332,8.156,5.262,8.193,5.195,8.194C5.18,8.171,5.177,8.176,5.143,8.156
		c-0.009,0-0.054,0.026-0.067,0.035c-0.041,0.025-0.08,0.104-0.13,0.077C4.922,8.24,4.905,8.249,4.896,8.289
		c-0.104,0,0.051,0.247-0.197,0.247C4.708,8.448,4.7,8.363,4.574,8.363c0,0.106-0.177,0.085-0.259,0.074
		c0.019-0.082-0.02-0.141-0.087-0.186c0-0.063-0.048-0.145-0.048-0.247c-0.088,0,0.043-0.273-0.099-0.273
		c0.009,0.016,0.012,0.032,0.011,0.051c-0.098,0.001-0.198,0.018-0.296,0c0.026-0.091-0.053-0.101-0.028-0.195
		C3.786,7.51,3.819,7.441,3.833,7.363c0.037,0,0.032-0.113,0.099-0.113c0.068-0.04-0.025-0.148-0.025-0.048
		c0.001,0-0.122,0.043-0.136,0.048c0,0.008-0.123,0.125-0.123,0.037C3.586,7.313,3.49,7.437,3.587,7.46
		C3.576,7.512,3.5,7.553,3.5,7.56C3.36,7.561,3.411,7.551,3.401,7.484C3.32,7.484,3.226,7.3,3.143,7.3
		c0-0.079-0.087-0.155-0.087-0.259c-0.021,0-0.021-0.37,0-0.37c0-0.188,0.132-0.346,0.321-0.365
		c0.117-0.011,0.105,0.072,0.212,0.087c0.062,0.009,0.097-0.019,0.158-0.044c-0.004-0.051-0.036-0.064-0.05-0.11
		c0.074,0,0.279,0.013,0.31,0.074c0.071,0.03,0.161-0.05,0.21,0.019c0.037,0.051,0.099,0.215,0.099,0.266
		C4.3,6.597,4.38,6.719,4.39,6.733c0.117-0.002,0.087-0.093,0.068-0.18c-0.014-0.069-0.032-0.29-0.082-0.338
		c0-0.21,0.143-0.188,0.223-0.347c0.131,0,0.158-0.209,0.236-0.261c0-0.024,0.048-0.191,0.061-0.196
		c0.017-0.1,0.059-0.097,0.098-0.161c-0.015,0,0.161-0.131,0.161-0.11C5.22,5.095,5.278,4.957,5.303,4.881
		c0.034,0,0.108-0.071,0.123-0.099c0.086,0,0.141-0.049,0.247-0.049c-0.018,0.034,0,0.026,0.013,0.085
		c0.002-0.001-0.069,0.016-0.075-0.002C5.597,4.865,5.5,4.878,5.698,4.854C5.71,4.829,5.776,4.805,5.81,4.794
		c0-0.064,0.092-0.02,0.11-0.075C5.847,4.715,5.791,4.688,5.743,4.608C5.69,4.525,5.585,4.41,5.76,4.41
		c0-0.024-0.024-0.012-0.024-0.036c-0.091,0.024-0.111,0.085-0.21,0.085c-0.123,0.042-0.184,0.163-0.32,0.162
		c0.011-0.125,0.23-0.375,0.345-0.413c0.214-0.068,0.571,0.123,0.63-0.143C6.223,4.07,6.413,4.138,6.413,4.053
		c0.047,0-0.038-0.087,0.051-0.087c-0.013-0.06-0.113-0.135-0.148-0.135c0-0.135-0.074,0.012-0.111,0.012
		c0-0.089-0.032-0.081-0.062-0.111c0-0.065-0.141-0.165-0.186-0.235c-0.06,0-0.147-0.303-0.196-0.271
		c0,0.075-0.057,0.173-0.136,0.173c0,0.051-0.125,0.027-0.148,0.023c0-0.071,0.025-0.007,0.025-0.047
		c-0.042,0-0.038-0.053-0.038-0.063c-0.022,0-0.209-0.183-0.209-0.222C5.088,3.144,5.214,3.075,5.056,3.002
		C5.001,3.149,4.842,3.027,4.748,3.027c0,0.02-0.082-0.011-0.112,0C4.637,3.115,4.708,3.3,4.612,3.325
		c0.017,0.064,0.062,0.021,0.099,0.064C4.768,3.458,4.745,3.579,4.71,3.658c0.143,0.054-0.111,0.169-0.111,0.099
		c-0.078,0.021-0.09,0.12-0.012,0.172c0,0.052-0.025,0.137,0.049,0.137c-0.02,0.082-0.144,0.09-0.222,0.062
		c-0.007-0.025,0-0.033,0.025-0.025c-0.012-0.046-0.07-0.185-0.049-0.185C4.374,3.871,4.217,3.62,4.217,3.757
		c-0.09,0-0.186,0.019-0.186-0.088C3.999,3.66,3.945,3.635,3.933,3.608C3.77,3.585,3.705,3.566,3.524,3.533
		c0.008-0.074-0.155-0.21-0.233-0.259c0-0.184-0.052-0.354,0.146-0.382c0,0.028,0.179-0.055,0.198-0.061
		c0.05-0.104,0.15,0.055,0.192-0.096c0.028-0.092,0.136-0.149,0.228-0.114C4.042,2.735,4.008,2.854,3.907,2.854
		c0.071,0.06,0.266-0.023,0.346-0.023c0,0.007,0.126,0.023,0.16,0.023C4.357,2.78,4.004,2.717,4.167,2.595
		c0-0.035,0.143-0.035,0.162-0.11c0.016-0.059,0.031-0.229-0.001-0.239C4.28,2.229,4.23,2.252,4.155,2.237
		c0-0.025-0.001-0.049-0.025-0.049c0,0.078-0.069,0.004-0.124,0.026c0,0.019,0.046,0.073,0.012,0.073
		c0,0.115-0.012,0.225-0.161,0.248C3.856,2.454,3.817,2.302,3.735,2.274c0,0.238-0.228-0.098-0.271-0.136
		C3.446,2.066,3.396,2.037,3.339,2.016c-0.037,0.096-0.104,0.011-0.16,0.11C3.131,2.208,3.184,2.197,3.13,2.287
		c-0.07,0-0.241-0.047-0.247,0.025C2.956,2.314,2.986,2.33,2.969,2.398c0.12,0-0.049,0.075-0.049,0.086
		c-0.07,0-0.117,0.027-0.198,0.014c-0.1-0.015-0.204-0.034-0.3-0.065C2.341,2.405,2.356,2.36,2.327,2.36
		C2.217,2.177,2.488,2.287,2.488,2.299c0.089,0,0.197,0.118,0.172-0.075c0.033,0.01,0.066,0.013,0.099,0.013
		C2.738,2.152,2.641,2.194,2.574,2.2c0.001-0.052-0.073-0.173-0.086-0.173C2.458,1.937,2.475,1.933,2.475,1.854
		C2.454,1.859,2.33,1.944,2.32,1.917c1.354-1.264,3.171-2.041,5.166-2.041c2.324,0,4.403,1.051,5.794,2.702
		c-0.046,0.123-0.156,0.022-0.205,0.117c-0.015,0-0.052,0.11,0.024,0.11c-0.024,0.1-0.124,0.085-0.124,0
		c-0.07,0-0.109,0.077-0.208,0.074c0.01-0.062-0.116-0.247-0.188-0.247c0.023-0.045,0-0.004,0-0.051
		c0.205,0,0.424-0.036,0.581-0.036c0-0.112-0.335-0.255-0.42-0.211c-0.045,0.025-0.192-0.047-0.258-0.047
		c0-0.049-0.417-0.047-0.481-0.05c0-0.083-0.662,0.101-0.722,0.105c-0.144,0.01-0.202,0.095-0.315,0.192
		c0-0.001-0.34,0.283-0.174,0.283c-0.023,0.196-0.532,0.175-0.532,0.297c-0.022,0.006-0.171-0.032-0.099,0.097
		c-0.015,0,0.117,0.145,0.124,0.162c0.104,0,0.196,0.047,0.334,0.047c0.013-0.026,0.074-0.042,0.11-0.047
		c0.008,0.076,0.066,0.234,0.111,0.234c0,0.071,0.036,0.183-0.098,0.112c-0.021-0.015-0.024-0.116-0.029-0.152
		c-0.015-0.095-0.116,0.042-0.206,0.028c0,0.069-0.014,0.258,0.062,0.283c-0.033,0.104-0.172,0.033-0.234,0.124
		c-0.052,0-0.135,0.152-0.135,0.05c-0.08,0.053,0.007,0.195-0.15,0.111c-0.006,0.034-0.002,0.082-0.013,0.136
		c0.099,0-0.017,0.075-0.047,0.075c0,0.106-0.112-0.007-0.138-0.026C9.849,4.355,9.845,4.359,9.839,4.36
		c0.093,0.158-0.144,0.084-0.206,0.048c-0.076-0.043,0.03,0.071,0.081,0.089c0,0.076,0.263,0.215,0.113,0.37
		c0,0.045,0.006,0.05,0.049,0.05c0,0.108-0.132,0.089-0.211,0.074c0.036-0.064,0.01-0.096-0.073-0.099
		c0,0.095-0.199,0.042-0.282,0.075c-0.018-0.033-0.024-0.043-0.051-0.05c-0.022,0.057-0.061,0.444-0.05,0.444
		c0,0.152,0.12,0.249,0.26,0.297c0-0.038,0.32-0.015,0.337-0.067C9.83,5.486,9.92,5.484,9.939,5.374
		c0.008-0.052,0.165-0.443,0.171-0.445c0-0.013,0.294,0.08,0.347-0.023c0.025,0,0.092-0.024,0.11-0.051
		c0.095,0.013,0.116,0.186,0.174,0.186c0.067,0.102,0.229,0.076,0.285,0.186c0.078,0,0.086,0.207,0.086,0.284
		c0.09-0.07,0.103-0.131,0.081-0.203c-0.037-0.122,0.097,0.025,0.138-0.033c-0.057,0-0.043-0.114-0.158-0.086
		c-0.01-0.032-0.012-0.065-0.012-0.099c-0.155,0.026-0.146-0.21-0.271-0.185c-0.017-0.059-0.088-0.076-0.049-0.149
		c0.063-0.113,0.27,0.222,0.356,0.222c0.021,0.042,0.16,0.056,0.16,0.086c0.071,0.025,0.037,0.145,0.037,0.21
		c0.069,0,0.046,0.037,0.074,0.087c0.1,0.049,0.043,0.236,0.21,0.271c0-0.062,0.16-0.186,0.063-0.186
		c0.008-0.051-0.109-0.274,0.053-0.243c0.058,0.011,0.15,0.016,0.169,0.084c0.032,0.137,0.005,0.21,0.11,0.306
		c0.065,0.134,0.299-0.015,0.331,0.05c0.023,0,0.174,0.063,0.174,0.013c0.069-0.023,0.089-0.038,0.174-0.038
		c0,0.086-0.028,0.195-0.047,0.268c-0.011,0.059-0.07,0.113-0.051,0.189c-0.058,0-0.049,0.074,0.013,0.074
		c0,0.114-0.136,0.095-0.223,0.086c0.021,0.086,0.173,0.267,0.233,0.308c0.025,0.075,0.089,0.207,0.148,0.246
		c0.01,0.058,0.066,0.213,0.111,0.235c0,0.086,0.294,0.63,0.222,0.63c0.027,0.045,0.058,0.066,0.051,0.11
		c0.108,0,0.066,0.273,0.297,0.273c0.015-0.035,0.201-0.099,0.244-0.099c0.042-0.084,0.27-0.149,0.336-0.149
		c-0.024-0.067,0.345-0.227,0.345-0.257c0.047-0.018,0.088-0.114,0.088-0.167c0-0.085,0.061-0.091,0.061-0.155
		c0.097-0.066,0.123-0.234-0.014-0.271c0.025,0.141-0.098,0.067-0.077,0.028c0.022-0.058-0.019-0.081-0.058-0.128
		c-0.046-0.023,0.01-0.077-0.038-0.111c-0.062,0.152-0.182,0.222-0.307,0.222c-0.035-0.103,0.077,0.03-0.016-0.111
		c-0.025-0.042-0.035-0.087-0.023-0.136c-0.014,0-0.012-0.005-0.022-0.013c-0.023,0.131-0.01,0.149-0.101,0.149
		c-0.016-0.045,0.072-0.068,0-0.138c-0.026-0.027-0.052-0.1-0.052-0.134c-0.039-0.027-0.133-0.182-0.109-0.225
		c0.088-0.159,0.294,0.202,0.272,0.262c0.012-0.005,0.016,0,0.012,0.011c0.247-0.074,0.455,0.162,0.704,0.162
		c0.046,0.019,0.182,0.046,0.282,0.04c0.018,0.21,0.032,0.419,0.032,0.634C15.067,9.098,14.539,10.622,13.645,11.863z M12.11,5.101
		c-0.016-0.203,0.105-0.312,0.184-0.493c0.141-0.015,0.192,0.021,0.188,0.147c0.101,0,0.019,0.115,0.151,0.065
		c0.031-0.045,0.075-0.06,0.134-0.04c0.083,0,0.108,0.049,0.171,0.049C13,4.954,13.192,4.917,13.186,5.14
		c0.142,0-0.123,0.142-0.123,0.11c-0.16,0.045-0.194-0.11-0.261-0.11c0,0.145-0.081-0.026-0.101-0.026
		c0,0.05-0.473,0.08-0.555,0.075C12.161,5.13,12.172,5.116,12.11,5.101z"/>
	<path fill="#FFFFFF" d="M8.788,2.683C8.73,2.71,8.747,2.762,8.666,2.732c0-0.159-0.041-0.06-0.189-0.04
		c-0.031,0.004-0.217,0.069-0.217,0.04c-0.002,0,0.006-0.065,0-0.087c-0.04-0.012-0.012,0-0.012-0.024
		c-0.021,0-0.161,0.062-0.161,0.062c0.122,0-0.014,0.099-0.014,0.135c0.095,0.011,0.157,0.049,0.235,0.049
		c0,0.026,0.215-0.012,0.241-0.012c0.093,0,0.152-0.016,0.222-0.062C8.852,2.743,8.788,2.746,8.788,2.683z"/>
	<path fill="#FFFFFF" d="M9.54,3.744c0.125,0,0.155,0.04,0.163,0.173c0.146,0.048-0.098,0.037-0.111,0.037
		c0,0.062-0.091,0.187,0.022,0.152c0.083-0.025,0.1-0.019,0.1,0.07c0.111,0,0.265,0.005,0.321-0.11c0.061,0,0.065-0.057,0-0.076
		c0,0.067,0.002,0.063-0.059,0.063c0.02-0.133,0.007-0.246-0.111-0.246c0.018-0.058-0.03-0.102-0.08-0.139
		C9.695,3.596,9.787,3.58,9.804,3.497c-0.068,0.017-0.07,0.074-0.161,0.074c0-0.019,0.019-0.079,0.004-0.086
		c0.019,0,0.108-0.074,0.008-0.074C9.61,3.571,9.475,3.415,9.496,3.56C9.511,3.66,9.54,3.653,9.54,3.744z"/>
	<path fill="#FFFFFF" d="M9.185,4.09C9.369,4.087,9.418,3.98,9.467,3.833C9.519,3.688,9.42,3.764,9.369,3.769
		c-0.041,0.021-0.072-0.072-0.092-0.03C9.263,3.775,9.292,3.818,9.331,3.818C9.32,3.849,9.075,3.885,9.198,3.917
		C9.182,3.987,9.118,4.023,9.185,4.09z"/>
	<path fill="#FFFFFF" d="M9.54,4.226c0.015,0.042,0.074,0.018,0.074-0.013c-0.019,0-0.039,0-0.06,0
		C9.56,4.226,9.555,4.229,9.54,4.226z"/>
	<path fill="#FFFFFF" d="M5.97,4.707c0.068-0.004,0.099-0.021,0.099-0.086C6.007,4.657,5.986,4.647,5.97,4.707z"/>
	<path fill="#FFFFFF" d="M10.591,4.991c0.009,0.041-0.014,0.049-0.074,0.026c0.023,0.058,0.012,0.072,0.051,0.11
		C10.585,5.071,10.667,5.017,10.591,4.991z"/>
	<path fill="#FFFFFF" d="M10.579,5.164c0,0.077-0.014,0.113-0.036,0.025c-0.071,0-0.037,0.104-0.037,0.16
		C10.642,5.391,10.628,5.164,10.579,5.164z"/>
	<path fill="#FFFFFF" d="M11.075,5.497c-0.069,0.033-0.039,0.065-0.134,0.034c-0.039-0.013-0.083-0.07-0.103,0.003
		C10.961,5.546,11.075,5.699,11.075,5.497z"/>
	<path fill="#FFFFFF" d="M13.508,8.3c-0.133-0.011-0.031-0.031-0.037-0.073c-0.103,0-0.285-0.357-0.285-0.445
		c-0.036-0.019-0.066-0.149-0.063-0.149c-0.03-0.088-0.143-0.159-0.1-0.246c-0.109-0.065-0.222-0.29-0.256-0.396
		c-0.068-0.047-0.112-0.185-0.112-0.258c-0.076,0-0.175-0.225-0.162-0.309c-0.069,0-0.088-0.125-0.159-0.125
		c0.035-0.104-0.459-0.113-0.543-0.124c0.013-0.083-0.051-0.134-0.125-0.134c0,0.129-0.278,0.144-0.373,0.139
		c-0.069-0.005-0.218-0.023-0.218-0.103c-0.049-0.013-0.113,0-0.186,0c0.017-0.083-0.154-0.46-0.248-0.483c0,0.012,0,0.026,0,0.038
		c-0.068,0.01-0.508-0.098-0.508-0.012c-0.052,0-0.272,0.078-0.307,0.148c-0.021,0-0.222,0.099-0.222,0.025
		c-0.053,0-0.113,0.027-0.137,0.074c-0.056,0-0.112,0.097-0.15,0.135c-0.095-0.01-0.026-0.071-0.12,0.063
		c0,0.044-0.074,0.234-0.089,0.234c0.034,0.031,0.031,0.047,0,0.087C9.042,6.441,9.004,6.551,8.937,6.584
		C8.866,6.7,8.854,6.576,8.802,6.706C8.772,6.778,8.735,6.832,8.705,6.89C8.608,7.073,8.604,7.152,8.604,7.325
		c0,0.062-0.065,0.118-0.051,0.169c0.021,0.071,0.062,0.216,0.051,0.262c-0.047,0-0.074,0.167,0.013,0.209
		c0,0.11,0.161,0.441,0.259,0.506c0,0.091,0.18,0.284,0.272,0.284c0.034,0.071,0.407,0.175,0.407,0.086
		c0.15,0,0.688-0.098,0.766,0.062c0.135,0,0.186-0.022,0.308,0.037c0.019,0.093-0.007,0.372-0.073,0.445
		c0,0.123,0.036,0.255,0.137,0.319c0.006,0.031,0.077,0.15,0.099,0.15c0.038,0.153,0.082,0.287,0.051,0.512
		c-0.023,0.199-0.09,0.319-0.09,0.501c-0.036,0,0.039,0.345,0.074,0.345c0,0.156,0.125,0.3,0.125,0.47
		c0.011,0,0.052,0.161,0.052,0.209c-0.04,0,0.195,0.472,0.195,0.507c0.042,0,0.05,0.161,0.087,0.161
		c0.006,0.106,0.047,0.205,0.047,0.283c0.05,0.074,0.254,0.013,0.335,0.013c0-0.029,0.372-0.098,0.421-0.098
		c0.023-0.032,0.185-0.261,0.185-0.261c0-0.114,0.232-0.334,0.322-0.395c0-0.021,0.11-0.299,0.1-0.299
		c0-0.192,0.047-0.322,0.047-0.492c0.035,0,0.072-0.161,0.149-0.161c0.02-0.042,0.081-0.059,0.123-0.086
		c0-0.106,0.087-0.188,0.087-0.319c0.056,0-0.037-0.414-0.037-0.458c-0.109,0-0.024-0.493-0.024-0.554
		c-0.071,0,0.229-0.336,0.225-0.313c0.021-0.09,0.182-0.209,0.233-0.275c0.049-0.063,0.207-0.183,0.207-0.252
		c0.07-0.035,0.08-0.102,0.134-0.137c0-0.032-0.038-0.123,0.056-0.123c-0.026-0.158,0.11-0.25,0.11-0.407
		c-0.106,0.035-0.253,0.047-0.36,0.047C13.643,8.299,13.522,8.301,13.508,8.3z"/>
	<path fill="#FFFFFF" d="M4.167,7.041C4.155,7.037,4.142,7.033,4.13,7.028C4.088,7.145,4.253,7.124,4.253,7.053
		C4.217,7.071,4.183,7.102,4.167,7.041z"/>
	<path fill="#FFFFFF" d="M4.538,7.028C4.5,7.093,4.438,7.069,4.376,7.067c0.039,0.055,0.161,0.11,0.223,0.11
		c0.042,0.082,0.166,0.135,0.263,0.125C4.991,7.29,4.857,7.194,4.835,7.152C4.708,7.152,4.693,7.044,4.538,7.028z"/>
	<path fill="#FFFFFF" d="M5.291,7.35c-0.026,0.075,0,0.004,0,0.062C5.199,7.414,5.123,7.363,5.056,7.363
		C5.078,7.4,5.105,7.427,5.105,7.46c-0.064,0.024-0.111,0-0.173,0c0.023,0.046,0.19,0.052,0.211,0.013
		c0.142,0,0.148-0.003,0.283,0.01C5.422,7.448,5.33,7.359,5.291,7.35z"/>
	<path fill="#FFFFFF" d="M4.612,7.448c-0.035,0.094,0.04,0.074,0.086,0.074C4.702,7.481,4.672,7.457,4.612,7.448z"/>
	<path fill="#FFFFFF" d="M4.71,7.522C4.735,7.52,4.759,7.514,4.786,7.51C4.771,7.401,4.717,7.466,4.71,7.522z"/>
	<path fill="#FFFFFF" d="M5.612,7.448C5.588,7.521,5.636,7.484,5.673,7.484C5.673,7.459,5.64,7.448,5.612,7.448z"/>
	<path fill="#FFFFFF" d="M5.55,7.46c0,0.013,0,0.023,0,0.037c0.015-0.004,0.021-0.014,0.037-0.014C5.587,7.469,5.567,7.46,5.55,7.46
		z"/>
	<path fill="#FFFFFF" d="M5.192,8.091c0.041,0,0.039-0.002,0.049-0.037C5.229,8.05,5.217,8.044,5.205,8.042
		C5.199,8.058,5.196,8.075,5.192,8.091z"/>
	<path fill="#FFFFFF" d="M13.765,10.685c0.065,0.021,0.051,0.002,0.039-0.063C13.773,10.646,13.765,10.638,13.765,10.685z"/>
</g>
</svg>
